<?xml version="1.0" encoding="iso-8859-1"?>
<!-- Generator: Adobe Illustrator 19.0.0, SVG Export Plug-In . SVG Version: 6.00 Build 0)  -->
<svg version="1.1" id="Capa_1" xmlns="http://www.w3.org/2000/svg" xmlns:xlink="http://www.w3.org/1999/xlink" x="0px" y="0px"
	 viewBox="0 0 512 512" style="enable-background:new 0 0 512 512;" xml:space="preserve">
<g>
	<g>
		<path d="M400,112H112c-8.832,0-16,7.168-16,16v352c0,8.832,7.168,16,16,16h288c8.832,0,16-7.168,16-16V128
			C416,119.168,408.832,112,400,112z M256,272c26.464,0,48,21.536,48,48c0,20.832-13.408,38.432-32,45.056V384
			c0,8.832-7.168,16-16,16c-8.832,0-16-7.168-16-16v-16h-16c-8.832,0-16-7.168-16-16c0-8.832,7.168-16,16-16h32
			c8.832,0,16-7.2,16-16s-7.168-16-16-16c-26.464,0-48-21.536-48-48c0-20.832,13.408-38.432,32-45.056V192c0-8.832,7.168-16,16-16
			c8.832,0,16,7.168,16,16v16h16c8.832,0,16,7.168,16,16c0,8.832-7.168,16-16,16h-32c-8.832,0-16,7.168-16,16
			C240,264.832,247.168,272,256,272z"/>
	</g>
</g>
<g>
	<g>
		<path d="M480,16H32C14.336,16,0,30.336,0,48v96c0,17.664,14.336,32,32,32h32v-64c0-17.664,14.336-32,32-32h320
			c17.664,0,32,14.336,32,32v64h32c17.664,0,32-14.336,32-32V48C512,30.336,497.664,16,480,16z"/>
	</g>
</g>
<g>
</g>
<g>
</g>
<g>
</g>
<g>
</g>
<g>
</g>
<g>
</g>
<g>
</g>
<g>
</g>
<g>
</g>
<g>
</g>
<g>
</g>
<g>
</g>
<g>
</g>
<g>
</g>
<g>
</g>
</svg>
