<svg width="30" height="32" viewBox="0 0 30 32" fill="none" xmlns="http://www.w3.org/2000/svg">
<path d="M28.5036 27.6197H8.44269C7.61588 27.6197 6.94576 26.9049 6.94576 26.0229C6.94576 25.141 7.61588 24.4262 8.44269 24.4262H28.5031C29.3299 24.4262 30 25.141 30 26.0229C30 26.9049 29.3304 27.6197 28.5036 27.6197Z" fill="black"/>
<path d="M28.5036 17.597H8.44269C7.61588 17.597 6.94576 16.8822 6.94576 16.0003C6.94576 15.1184 7.61588 14.4036 8.44269 14.4036H28.5031C29.3299 14.4036 30 15.1184 30 16.0003C30.0005 16.8822 29.3304 17.597 28.5036 17.597Z" fill="black"/>
<path d="M28.5036 7.57434H8.44269C7.61588 7.57434 6.94576 6.85954 6.94576 5.97762C6.94576 5.09569 7.61588 4.38089 8.44269 4.38089H28.5031C29.3299 4.38089 30 5.09569 30 5.97762C30 6.85954 29.3304 7.57434 28.5036 7.57434Z" fill="black"/>
<path d="M2.01038 8.2455C3.12068 8.2455 4.02076 7.28542 4.02076 6.1011C4.02076 4.91678 3.12068 3.9567 2.01038 3.9567C0.900077 3.9567 0 4.91678 0 6.1011C0 7.28542 0.900077 8.2455 2.01038 8.2455Z" fill="black"/>
<path d="M2.01038 18.1447C3.12068 18.1447 4.02076 17.1846 4.02076 16.0003C4.02076 14.8159 3.12068 13.8559 2.01038 13.8559C0.900077 13.8559 0 14.8159 0 16.0003C0 17.1846 0.900077 18.1447 2.01038 18.1447Z" fill="black"/>
<path d="M2.01038 28.0439C3.12068 28.0439 4.02076 27.0838 4.02076 25.8995C4.02076 24.7151 3.12068 23.7551 2.01038 23.7551C0.900077 23.7551 0 24.7151 0 25.8995C0 27.0838 0.900077 28.0439 2.01038 28.0439Z" fill="black"/>
</svg>
