<svg id="Capa_1" enable-background="new 0 0 512 512" height="512" viewBox="0 0 512 512" width="512" xmlns="http://www.w3.org/2000/svg"><g><path d="m442.092 200.596c-26.691 41.609-73.099 69.404-126.092 69.404-63.937 0-118.262-40.4-139.808-96.865-11.228 5.068-22.092 10.767-32.252 17.411-11.544-6.928-24.463-10.546-37.94-10.546h-30c-4.819 0-9.346 2.314-12.173 6.226-2.813 3.911-3.589 8.95-2.051 13.521l16.89 50.684c-12.275 9.96-29.839 19.569-51.973 19.569h-11.693c-8.291 0-15 6.709-15 15v90c0 3.97 2.461 8.657 5.259 11.47 38.306 38.394 86.913 67.317 139.413 80.325l6.621 33.149c1.406 7.002 7.559 12.056 14.707 12.056h60c8.291 0 15-6.709 15-15v-16.128c57.51 3.721 93.003-1.45 120-9.185v25.313c0 8.291 6.709 15 15 15h60c6.68 0 12.554-4.424 14.414-10.84 9.434-32.725 22.91-64.38 40.034-94.102 13.638-23.657 21.552-50.911 21.552-77.058 0-50.695-27.444-96.584-69.908-129.404zm-306.092 129.404c-8.284 0-15-6.716-15-15s6.716-15 15-15 15 6.716 15 15-6.716 15-15 15z"/><path d="m316 0c-66.275 0-120 53.725-120 120 0 66.273 53.725 120 120 120s120-53.727 120-120c0-66.275-53.725-120-120-120zm25.136 173.983c-3.249 1.624-6.655 2.903-10.14 3.871v4.145c0 8.284-6.716 15-15 15s-15-6.716-15-15v-3.676c-6.244-1.572-12.066-4.215-17-7.914-6.627-4.97-7.971-14.372-3-21 4.971-6.626 14.373-7.971 21-3 6 4.5 17.54 4.834 25.723.742 3.289-1.645 5.064-3.625 5.064-4.652 0-1.795 0-2.072-1.996-3.137-3.914-2.089-10.834-3.373-17.527-4.614-8.935-1.658-18.174-3.372-26.18-7.645-11.691-6.24-17.871-16.477-17.871-29.604 0-13.142 7.881-24.62 21.622-31.49 3.257-1.629 6.671-2.918 10.165-3.887v-4.123c0-8.284 6.716-15 15-15s15 6.716 15 15v3.673c6.245 1.573 12.067 4.218 17 7.917 6.628 4.971 7.971 14.373 3 21s-14.371 7.971-21 3c-6.009-4.507-17.559-4.841-25.749-.748-3.308 1.654-5.038 3.595-5.038 4.657 0 1.796 0 2.072 1.996 3.138 3.914 2.089 10.835 3.373 17.527 4.614 8.935 1.658 18.174 3.372 26.181 7.645 11.69 6.24 17.87 16.477 17.87 29.604.001 13.129-7.89 24.605-21.647 31.484z"/></g></svg>