<svg height="512pt" viewBox="0 0 512 512" width="512pt" xmlns="http://www.w3.org/2000/svg"><path d="m0 143.324219 34.269531-25.695313v54.691406zm0 0"/><path d="m429.21875 18.5c-11.9375-11.929688-27.808594-18.5-44.6875-18.5h-257.0625c-16.878906 0-32.75 6.570312-44.699219 18.511719-11.929687 11.949219-18.5 27.816406-18.5 44.6875v134.511719l164.75 139.398437c17.089844-8.109375 36.871094-8.109375 53.960938 0l164.75-139.398437v-134.511719c0-16.871094-6.570313-32.738281-18.511719-44.699219zm-217.890625 173.589844c-5.6875 5.699218-12.859375 9.429687-20.65625 10.820312v17.761719c0 8.277344-6.722656 15-15 15-8.292969 0-15-6.722656-15-15v-17.140625h-9.101563c-8.289062 0-15-6.710938-15-15 0-8.28125 6.710938-15 15-15h32.128907c2.429687 0 4.710937-.941406 6.421875-2.652344 1.738281-1.738281 2.679687-4.019531 2.679687-6.449218 0-5.007813-4.082031-9.101563-9.101562-9.101563h-16.070313c-21.558594 0-39.097656-17.539063-39.097656-39.097656 0-10.449219 4.070312-20.269531 11.46875-27.652344 5.699219-5.707031 12.871094-9.4375 20.671875-10.828125v-17.75c0-8.28125 6.707031-15 15-15 8.277344 0 15 6.71875 15 15v17.128906h9.097656c8.28125 0 15 6.722656 15 15 0 8.292969-6.71875 15-15 15h-32.140625c-2.429687 0-4.707031.949219-6.417968 2.660156-1.730469 1.730469-2.679688 4.011719-2.679688 6.441407 0 5.019531 4.089844 9.097656 9.097656 9.097656h16.070313c21.5625 0 39.101562 17.542969 39.101562 39.101563 0 10.460937-4.070312 20.28125-11.472656 27.660156zm157.140625 27.511718h-80.339844c-8.277344 0-15-6.722656-15-15 0-8.28125 6.722656-15 15-15h80.339844c8.28125 0 15 6.71875 15 15 0 8.277344-6.71875 15-15 15zm0-64.273437h-80.339844c-8.277344 0-15-6.707031-15-15 0-8.277344 6.722656-15 15-15h80.339844c8.28125 0 15 6.722656 15 15 0 8.292969-6.71875 15-15 15zm0-64.257813h-80.339844c-8.277344 0-15-6.71875-15-15 0-8.289062 6.722656-15 15-15h80.339844c8.28125 0 15 6.710938 15 15 0 8.28125-6.71875 15-15 15zm0 0"/><path d="m512 143.324219-34.269531 28.996093v-54.691406zm0 0"/><path d="m309.496094 353.972656c47.175781 31.445313 145.289062 96.855469 192.75 128.496094 6.167968-9.753906 9.753906-21.296875 9.753906-33.667969v-266.175781zm0 0"/><path d="m0 182.625v266.175781c0 12.371094 3.585938 23.914063 9.753906 33.667969 60.441406-40.292969 151.988282-101.324219 192.75-128.496094zm0 0"/><path d="m237.589844 366.636719c-37.417969 24.941406-138.550782 92.363281-205.617188 137.074219 9.21875 5.265624 19.875 8.289062 31.226563 8.289062h385.601562c11.351563 0 22.007813-3.023438 31.226563-8.289062-54.589844-36.390626-163.019532-108.679688-205.613282-137.070313-11.1875-7.460937-25.640624-7.460937-36.824218-.003906zm0 0"/></svg>